<svg xmlns="http://www.w3.org/2000/svg" xmlns:xlink="http://www.w3.org/1999/xlink" width="100%" height="100%" viewBox="0 0 405.204 84.777">
<path fill="#C6CDD1" d="M31.555,48.098v17.364H19.4V19.447h4.515V0h-8.912C6.751,0,0,6.751,0,15.002v51.039c0,8.251,6.751,15.002,15.003,15.002h18.566c8.252,0,15.003-6.751,15.003-15.002v-0.579V48.098H31.555z"/>
<path fill="#00568C" d="M65.172,3.733H46.604c-8.251,0-15.002,6.751-15.002,15.002v17.8h16.969V19.447h12.502v46.015h-6.772v19.315h10.87c8.251,0,15.003-6.751,15.003-15.003V18.735C80.175,10.484,73.423,3.733,65.172,3.733"/>
<polygon fill="#005789" points="112,14.414 122.02,14.414 122.02,38.116 149.224,38.116 149.224,14.414 159.243,14.414 159.243,71.43 149.224,71.43 149.224,47.401 122.02,47.401 122.02,71.43 112,71.43 "/>
<path fill="#005789" d="M170.966,47.238V14.414h10.019v32.417c0,10.589,5.457,16.209,14.417,16.209c8.878,0,14.335-5.294,14.335-15.802V14.414h10.019V46.75c0,17.023-9.612,25.575-24.518,25.575C180.415,72.325,170.966,63.773,170.966,47.238"/>
<path fill="#005789" d="M231.48,14.414h25.411c7.168,0,12.789,2.118,16.453,5.702c3.014,3.095,4.725,7.331,4.725,12.299v0.161c0,9.368-5.62,14.988-13.521,17.269l15.395,21.585H268.05l-14.01-19.874h-12.543V71.43H231.48V14.414z M256.159,42.678c7.167,0,11.729-3.747,11.729-9.53v-0.163c0-6.108-4.398-9.449-11.811-9.449h-14.579v19.142H256.159z"/>
<path fill="#005789" d="M285.802,43.085v-0.163c0-16.046,12.381-29.485,29.893-29.485s29.729,13.276,29.729,29.322v0.163c0,16.046-12.38,29.485-29.893,29.485C298.02,72.407,285.802,59.131,285.802,43.085 M334.917,43.085v-0.163c0-11.077-8.063-20.281-19.386-20.281c-11.321,0-19.223,9.041-19.223,20.118v0.163c0,11.077,8.064,20.2,19.386,20.2C327.017,63.122,334.917,54.162,334.917,43.085"/>
<polygon fill="#005789" points="355.519,14.414 364.804,14.414 395.348,53.836 395.348,14.414 405.204,14.414 405.204,71.43 396.815,71.43 365.375,30.867 365.375,71.43 355.519,71.43 "/>
</svg>
